:SAMPLES-PER-SECOND 30
:FULLY-SPECIFIED
:DEGREES
196
root  34.86723412 36.52682868 -14.45099237 9.968007088 -2.960956573 5.253295898
lowerback  -7.736589909 -0.06710868329 -0.4426787198
upperback  -4.12514019 0.5512964725 -4.992010117
thorax  0.1146129966 0.4767029285 -4.883969784
lowerneck  -4.072679996 -16.26720047 -10.77079964
upperneck  8.188799858 -22.22169876 11.43369961
head  5.60269022 -10.65480042 3.395309925
lclavicle  0 -4.497500157e-015 -2.743230041e-014
lhumerus  -47.5141983 30.07760239 60.44630051
lradius  0.008772743866 -6.507048965e-006 28.63529778
lwrist  4.824992743e-007 -3.790274832e-007 -31.28230095
lhand  -4.444749912e-031 -37.39680099 -10.59200001
lfingers  90 7.125020027 -90
lthumb  95.03052065 -25.41144884 101.5923974
rclavicle  0 -4.497500157e-015 -2.743230041e-014
rhumerus  28.32490158 -39.76120377 -19.38380051
rradius  -5.16745672e-007 2.214343908e-008 37.00640106
rwrist  -2.867388866e-005 0.04980975017 -172.9210052
rhand  -1.771011023e-031 4.495490074 -8.010800362
rfingers  -90 -7.125020027 -90
rthumb  -85.2932856 -8.124887646 -59.77693282
rfemur  -12.8946104 14.41668034 11.4843092
rtibia  -1.830929875 -2.054445744 20.99419022
rfoot  0.1288976818 -22.02176285 -36.10813522
rtoes  3.822133895 19.64608168 -101.2388187
lfemur  -6.06431818 -17.99685669 -23.46147728
ltibia  5.797616959 -1.007658124 9.847503662
lfoot  1.194522381 -21.73289299 36.39676285
ltoes  -8.67904985 -18.08859366 -116.1804861
197
root  34.86617081 36.52715007 -14.45362211 9.969136238 -2.982792854 5.243350506
lowerback  -7.751019955 -0.0631884709 -0.4389363527
upperback  -4.128041267 0.5570070148 -4.99132061
thorax  0.1243970022 0.4774657488 -4.889579773
lowerneck  -4.097249985 -16.25550079 -10.78709984
upperneck  8.224826813 -22.20776558 11.45575809
head  5.620659828 -10.64490032 3.403419971
lclavicle  0 -4.497500157e-015 -2.743230041e-014
lhumerus  -47.45880127 30.01810074 60.49079895
lradius  0.008277278394 -6.507048965e-006 28.62689972
lwrist  4.824992743e-007 -3.790274832e-007 -31.18110085
lhand  -4.442818134e-031 -37.36420059 -10.59729958
lfingers  90 7.125020027 -90
lthumb  95.01643218 -25.41783031 101.5580081
rclavicle  0 -4.497500157e-015 -2.743230041e-014
rhumerus  28.37680054 -39.86289597 -19.50220108
rradius  -5.16745672e-007 2.214343908e-008 37.01490021
rwrist  -2.867388866e-005 0.04919154197 -172.8200073
rhand  -1.771169402e-031 4.560190201 -7.976029873
rfingers  -90 -7.125020027 -90
rthumb  -85.2611118 -8.159445688 -59.71140672
rfemur  -12.90522575 14.40104103 11.48400211
rtibia  -1.829247594 -2.062303543 20.99626541
rfoot  0.1243511662 -22.05404282 -36.09189224
rtoes  3.844322007 19.64191679 -101.3048203
lfemur  -6.09531641 -17.98811913 -23.44076157
ltibia  5.777783394 -1.004372597 9.893838882
lfoot  1.19452107 -21.7559948 36.40803909
ltoes  -8.670782695 -18.09245492 -116.1538624
198
root  34.86477108 36.52825844 -14.45626537 9.981033325 -3.008113384 5.230247021
lowerback  -7.753359795 -0.05861255154 -0.4312295318
upperback  -4.128270149 0.5605469942 -4.990622044
thorax  0.1279239953 0.4781520963 -4.892389774
lowerneck  -4.104549885 -16.24690056 -10.78250027
upperneck  8.213620186 -22.19470215 11.45269966
head  5.61631012 -10.63869953 3.402029991
lclavicle  0 -4.497500157e-015 -2.743230041e-014
lhumerus  -47.47669983 30.02669907 60.48550034
lradius  0.007753721438 -6.507048965e-006 28.66410065
lwrist  4.824992743e-007 -3.790274832e-007 -31.22629929
lhand  -4.44351693e-031 -37.37599945 -10.57310009
lfingers  90 7.125020027 -90
lthumb  95.0165671 -25.39361562 101.5683243
rclavicle  0 -4.497500157e-015 -2.743230041e-014
rhumerus  28.41230202 -39.90819931 -19.5897007
rradius  -5.16745672e-007 2.214343908e-008 37.05120087
rwrist  -2.867388866e-005 0.04857538268 -172.6029968
rhand  -1.771330443e-031 4.625040054 -8.04957962
rfingers  -90 -7.125020027 -90
rthumb  -85.28406759 -8.100562734 -59.65358261
rfemur  -12.92363071 14.37482643 11.48289585
rtibia  -1.827953458 -2.07271266 20.99048805
rfoot  0.1224390417 -22.08708191 -36.0717392
rtoes  3.857105289 19.63950584 -101.3428521
lfemur  -6.230764389 -17.98515701 -23.3775444
ltibia  5.697956085 -1.027508736 10.07889748
lfoot  1.190998316 -21.77150917 36.35565567
ltoes  -8.676498845 -18.08978562 -116.1722702
199
root  34.86531776 36.52920761 -14.45831239 9.990578651 -3.037239552 5.229183674
lowerback  -7.751720905 -0.05416778103 -0.4214642942
upperback  -4.127062798 0.5640745163 -4.989955425
thorax  0.1283031851 0.478767395 -4.894328594
lowerneck  -4.114459991 -16.24169922 -10.81299973
upperneck  8.254910469 -22.19280052 11.49699974
head  5.639379978 -10.63389969 3.416090012
lclavicle  0 -4.497500157e-015 -2.743230041e-014
lhumerus  -47.48680115 30.01819801 60.49750137
lradius  0.007201526314 -6.507048965e-006 28.70619774
lwrist  4.824992743e-007 -3.790274832e-007 -31.24570084
lhand  -4.444850587e-031 -37.39849854 -10.60070038
lfingers  90 7.125020027 -90
lthumb  95.03316592 -25.41983928 101.5948816
rclavicle  0 -4.497500157e-015 -2.743230041e-014
rhumerus  28.35790253 -39.86110306 -19.56030083
rradius  -5.16745672e-007 2.214343908e-008 37.08499908
rwrist  -2.867388866e-005 0.04796151817 -172.5789948
rhand  -1.771342579e-031 4.629889965 -8.004570007
rfingers  -90 -7.125020027 -90
rthumb  -85.26003563 -8.139709526 -59.64565109
rfemur  -12.95193958 14.39908123 11.48082733
rtibia  -1.828820467 -2.06188798 21.01198196
rfoot  0.1047962233 -22.07304001 -36.09786224
rtoes  3.845461386 19.64170224 -101.30821
lfemur  -6.288841724 -18.00518608 -23.3613205
ltibia  5.668772221 -1.031744242 10.14667702
lfoot  1.188497663 -21.78724861 36.37937164
ltoes  -8.664322502 -18.09546901 -116.1330618
